# xmcd
#
# Track frame offsets: 
#        150
#        9310
#        22927
#        38500
#        52827
#        73475
#        87242
#        104597
#        118762
#        132772
#        161787
#
# Disc length: 2367 seconds
#
# Revision: 5
# Processed by: cddbd v1.5.2PL0 Copyright (c) Steve Scherf et al.
# Submitted via: ExactAudioCopy v0.99pb4
#
DISCID=89093d0b
DTITLE=Queen - News Of The World
DYEAR=1977
DGENRE=Rock
TTITLE0=We Will Rock You
TTITLE1=We Are The Champions
TTITLE2=Sheer Heart Attack
TTITLE3=All Dead, All Dead
TTITLE4=Spread Your Wings
TTITLE5=Fight From The Inside
TTITLE6=Get Down, Make Love
TTITLE7=Sleeping On The Sidewalk
TTITLE8=Who Needs You
TTITLE9=It's Late
TTITLE10=My Melancholy Blues
EXTD=original master recording
EXTT0=
EXTT1=
EXTT2=
EXTT3=
EXTT4=
EXTT5=
EXTT6=
EXTT7=
EXTT8=
EXTT9=
EXTT10=
PLAYORDER=
